<?xml version="1.0" encoding="UTF-8"?>
<svg id="Layer_1" data-name="Layer 1" xmlns="http://www.w3.org/2000/svg" viewBox="0 0 346.84 484.39">
  <ellipse cx="209" cy="179.68" rx="186.84" ry="127.88" transform="translate(-36.25 305.44) rotate(-67.83)" style="fill: #fb0505; stroke-width: 0px;"/>
  <g>
    <path d="M6.99,480.89c-1.3-.01-2.51-.76-3.1-1.92-1-1.96.2-3.64.59-4.19,3.45-4.84,6.95-9.74,10.47-14.67,72.48-101.54,154.63-216.64,166.63-286.76,1.32-7.69-.23-14.02-4.72-19.34-10.7-12.69-38.19-19.39-79.49-19.39-32.35,0-61.86,4.2-62.15,4.25-.17.02-.34.04-.5.04-1.67,0-3.14-1.19-3.44-2.88-.33-1.86.86-3.64,2.7-4.04.9-.2,90.98-19.54,156.27-19.54,39.82,0,62.43,6.91,69.12,21.13,3.23,6.87,1.94,17.25-3.96,31.71-5.02,12.32-13.54,27.86-25.31,46.19-35.03,54.55-92.4,124.19-134.36,173.01-27.27,31.73-49.36,56.2-60.1,67.96-7.39,8.09-13.85,15.05-18.69,20.11-7.63,8-8.22,8.35-9.73,8.35-.07,0-.15,0-.22,0Z" style="fill: #010101; stroke-width: 0px;"/>
    <path d="M190.24,115.92c32.58,0,59.21,4.79,65.95,19.12C279.21,183.96,10.01,477.39,7.03,477.39c-.08,0,.02-.19.3-.58,73.41-102.99,164.96-228.46,177.69-302.88,6.03-35.26-43.78-42.83-87.66-42.83-33,0-62.65,4.28-62.65,4.28,0,0,89.86-19.46,155.53-19.46M190.24,108.92c-65.67,0-153.32,18.82-157.01,19.62-3.69.8-6.08,4.37-5.41,8.08.61,3.37,3.55,5.76,6.88,5.76.33,0,.67-.02,1.01-.07.29-.04,29.57-4.21,61.65-4.21,39.66,0,66.95,6.45,76.82,18.15,3.78,4.49,5.07,9.88,3.94,16.5-5.25,30.7-25.02,73.45-60.45,130.69-31.25,50.49-70.73,105.81-105.57,154.63-3.53,4.94-7.02,9.83-10.47,14.68-2.46,3.46-1.58,6.39-.84,7.84,1.2,2.33,3.62,3.8,6.24,3.8,3.08,0,4.84-1.73,7.06-3.92,1.34-1.32,3.19-3.22,5.5-5.64,4.94-5.18,11.51-12.26,19.02-20.49,10.93-11.98,33.38-36.87,60.95-68.98,42.53-49.54,100.5-120.05,135.15-174.65,33.36-52.57,31.85-70.06,27.81-78.65-7.33-15.57-30.97-23.14-72.29-23.14h0Z" style="fill: #fff; stroke-width: 0px;"/>
  </g>
  <circle cx="255.41" cy="61.21" r="24.39" style="fill: #fefdfd; stroke-width: 0px;"/>
</svg>